# Blender v2.83.2 OBJ File: 'sailboat.blend'
# www.blender.org
mtllib rudder.mtl
v -0.334991 -1.190089 -6.473940
v -0.334991 0.695290 -6.303623
v -0.334991 -1.164106 -6.930377
v -0.334991 0.600878 -6.912072
v -0.203841 -1.190089 -6.473940
v -0.203841 0.695290 -6.303623
v -0.203841 -1.164106 -6.930377
v -0.203841 0.600878 -6.912072
v -0.334991 0.331041 -6.140332
v -0.334991 0.086794 -6.930377
v -0.203841 0.086794 -6.930377
v -0.203841 0.331041 -6.140332
v -0.203841 0.086794 -6.023927
v -0.203841 -0.332466 -6.023927
v -0.334991 -0.332466 -6.023927
v -0.334991 0.086794 -6.023927
vt 0.500000 0.000000
vt 0.625000 0.000000
vt 0.625000 0.250000
vt 0.500000 0.250000
vt 0.625000 0.500000
vt 0.500000 0.500000
vt 0.625000 0.750000
vt 0.500000 0.750000
vt 0.625000 1.000000
vt 0.500000 1.000000
vt 0.125000 0.500000
vt 0.375000 0.500000
vt 0.375000 0.750000
vt 0.125000 0.750000
vt 0.875000 0.500000
vt 0.875000 0.750000
vt 0.500000 0.750000
vt 0.375000 0.750000
vt 0.375000 0.250000
vt 0.375000 0.000000
vt 0.500000 1.000000
vt 0.375000 1.000000
vt 0.125000 0.750000
vt 0.375000 0.000000
vt 0.500000 0.000000
vn -1.0000 0.0000 0.0000
vn 0.0000 0.0356 -0.9994
vn 1.0000 -0.0000 0.0000
vn 0.0000 0.4091 0.9125
vn 0.0000 -0.9984 -0.0568
vn 0.0000 0.9882 -0.1533
vn 0.0000 0.0000 -1.0000
vn 0.0000 0.0000 1.0000
vn 0.0000 0.4302 0.9027
vn 0.0000 -0.4646 0.8855
usemtl Material
s off
f 9/1/1 2/2/1 4/3/1 10/4/1
f 10/4/2 4/3/2 8/5/2 11/6/2
f 11/6/3 8/5/3 6/7/3 12/8/3
f 12/8/4 6/7/4 2/9/4 9/10/4
f 3/11/5 7/12/5 5/13/5 1/14/5
f 8/5/6 4/15/6 2/16/6 6/7/6
f 5/13/3 12/8/3 13/17/3 14/18/3
f 7/12/3 11/6/3 12/8/3 5/13/3
f 3/19/7 10/4/7 11/6/7 7/12/7
f 1/20/1 9/1/1 10/4/1 3/19/1
f 14/18/8 13/17/8 16/21/8 15/22/8
f 12/8/9 9/10/9 16/21/9 13/17/9
f 1/14/10 5/13/10 14/18/10 15/23/10
f 9/1/1 1/20/1 15/24/1 16/25/1
