# Blender v2.83.1 OBJ File: 'sailboat.blend'
# www.blender.org
mtllib sail2.mtl
o Plane.001
v 0.150502 17.560349 7.978322
v 0.091096 3.081530 7.978322
v 0.150502 10.983776 2.550322
v 0.091096 3.081530 -0.710333
v 0.120799 10.320940 7.978322
v 0.120799 7.032653 0.919994
v 0.150502 14.272062 5.264322
v 0.091096 3.081530 3.633994
v 0.120799 8.676796 4.449158
v 0.105947 6.701235 7.978322
v 0.105947 5.057091 0.104831
v 0.105947 5.879163 4.041576
v 0.135650 9.008214 1.735158
v 0.135650 13.940645 7.978322
v 0.135650 11.474430 4.856740
v 0.143076 9.995995 2.142740
v 0.143076 12.873247 5.060531
v 0.143076 15.750496 7.978322
v 0.128225 12.130793 7.978322
v 0.128225 8.020433 1.327576
v 0.128225 10.075613 4.652949
v 0.113373 6.044872 0.512412
v 0.113373 7.277980 4.245367
v 0.113373 8.511087 7.978322
v 0.098522 4.891382 7.978322
v 0.098522 4.069310 -0.302751
v 0.098522 4.480347 3.837785
v 0.150502 15.916206 6.621322
v 0.091096 3.081530 5.806158
v 0.120799 9.498868 6.213740
v 0.105947 6.290199 6.009949
v 0.135650 12.707537 6.417531
v 0.143076 14.311871 6.519426
v 0.128225 11.103203 6.315636
v 0.113373 7.894533 6.111845
v 0.098522 4.685864 5.908054
v 0.091096 3.081530 1.461831
v 0.120799 7.854724 2.684576
v 0.150502 12.627920 3.907322
v 0.105947 5.468127 2.073204
v 0.135650 10.241322 3.295949
v 0.143076 11.434620 3.601635
v 0.128225 9.048023 2.990263
v 0.113373 6.661426 2.378890
v 0.098522 4.274828 1.767517
vt 0.875000 0.750000
vt 1.000000 0.750000
vt 1.000000 1.000000
vt 0.875000 1.000000
vt 0.375000 0.750000
vt 0.500000 0.750000
vt 0.500000 1.000000
vt 0.375000 1.000000
vt 0.375000 0.250000
vt 0.500000 0.250000
vt 0.500000 0.500000
vt 0.375000 0.500000
vt 0.875000 0.250000
vt 1.000000 0.250000
vt 1.000000 0.500000
vt 0.875000 0.500000
vt 0.625000 0.250000
vt 0.750000 0.250000
vt 0.750000 0.500000
vt 0.625000 0.500000
vt 0.625000 0.750000
vt 0.750000 0.750000
vt 0.750000 1.000000
vt 0.625000 1.000000
vt 0.125000 0.250000
vt 0.250000 0.250000
vt 0.250000 0.500000
vt 0.125000 0.500000
vt 0.125000 0.750000
vt 0.250000 0.750000
vt 0.250000 1.000000
vt 0.125000 1.000000
vt 0.000000 0.750000
vt 0.000000 1.000000
vt 0.000000 0.250000
vt 0.000000 0.500000
vt 0.750000 0.000000
vt 0.875000 0.000000
vt 0.500000 0.000000
vt 0.625000 0.000000
vt 0.250000 0.000000
vt 0.375000 0.000000
vt 0.000000 0.000000
vt 0.125000 0.000000
vt 1.000000 0.000000
vn 1.0000 -0.0069 0.0003
vn 1.0000 -0.0083 0.0045
vn 1.0000 -0.0052 0.0028
vn 1.0000 -0.0050 0.0002
vn 1.0000 -0.0051 0.0014
vn 1.0000 -0.0075 0.0020
vn 1.0000 -0.0054 0.0048
vn 0.9999 -0.0096 0.0085
vn 0.9999 -0.0106 0.0116
vn 1.0000 -0.0056 0.0061
vn 1.0000 -0.0053 0.0037
vn 0.9999 -0.0088 0.0062
vn 1.0000 -0.0078 0.0031
vn 1.0000 -0.0052 0.0020
vn 1.0000 -0.0050 0.0008
vn 1.0000 -0.0072 0.0011
vn 1.0000 -0.0044 0.0007
vn 1.0000 -0.0044 0.0017
vn 1.0000 -0.0044 0.0031
vn 1.0000 -0.0045 0.0049
vn 1.0000 -0.0045 0.0040
vn 1.0000 -0.0044 0.0012
vn 1.0000 -0.0044 0.0002
vn 1.0000 -0.0044 0.0024
vn 1.0000 -0.0059 0.0009
vn 1.0000 -0.0062 0.0025
vn 1.0000 -0.0066 0.0047
vn 0.9999 -0.0073 0.0080
vn 1.0000 -0.0069 0.0061
vn 1.0000 -0.0060 0.0016
vn 1.0000 -0.0064 0.0035
vn 1.0000 -0.0058 0.0003
usemtl None
s off
f 45/1/1 37/2/1 4/3/1 26/4/1
f 43/5/2 38/6/2 6/7/2 20/8/2
f 34/9/3 30/10/3 9/11/3 21/12/3
f 36/13/4 29/14/4 8/15/4 27/16/4
f 35/17/5 31/18/5 12/19/5 23/20/5
f 44/21/6 40/22/6 11/23/6 22/24/6
f 33/25/7 32/26/7 15/27/7 17/28/7
f 42/29/8 41/30/8 13/31/8 16/32/8
f 39/33/9 42/29/9 16/32/9 3/34/9
f 28/35/10 33/25/10 17/28/10 7/36/10
f 32/26/11 34/9/11 21/12/11 15/27/11
f 41/30/12 43/5/12 20/8/12 13/31/12
f 38/6/13 44/21/13 22/24/13 6/7/13
f 30/10/14 35/17/14 23/20/14 9/11/14
f 31/18/15 36/13/15 27/16/15 12/19/15
f 40/22/16 45/1/16 26/4/16 11/23/16
f 10/37/17 25/38/17 36/13/17 31/18/17
f 5/39/18 24/40/18 35/17/18 30/10/18
f 14/41/19 19/42/19 34/9/19 32/26/19
f 1/43/20 18/44/20 33/25/20 28/35/20
f 18/44/21 14/41/21 32/26/21 33/25/21
f 24/40/22 10/37/22 31/18/22 35/17/22
f 25/38/23 2/45/23 29/14/23 36/13/23
f 19/42/24 5/39/24 30/10/24 34/9/24
f 12/19/25 27/16/25 45/1/25 40/22/25
f 9/11/26 23/20/26 44/21/26 38/6/26
f 15/27/27 21/12/27 43/5/27 41/30/27
f 7/36/28 17/28/28 42/29/28 39/33/28
f 17/28/29 15/27/29 41/30/29 42/29/29
f 23/20/30 12/19/30 40/22/30 44/21/30
f 21/12/31 9/11/31 38/6/31 43/5/31
f 27/16/32 8/15/32 37/2/32 45/1/32
